<mxfile host="app.diagrams.net" agent="Mozilla/5.0 (Windows NT 10.0; Win64; x64) AppleWebKit/537.36 (KHTML, like Gecko) Chrome/138.0.0.0 Safari/537.36" version="28.0.6">
  <diagram name="PÃ¡gina-1" id="0k2kr0NgMNPRXA59GTvK">
    <mxGraphModel dx="1869" dy="608" grid="1" gridSize="10" guides="1" tooltips="1" connect="1" arrows="1" fold="1" page="1" pageScale="1" pageWidth="827" pageHeight="1169" math="0" shadow="0">
      <root>
        <mxCell id="0" />
        <mxCell id="1" parent="0" />
        <mxCell id="Wryfh528fUQXv5REhCDo-7" style="edgeStyle=orthogonalEdgeStyle;rounded=0;orthogonalLoop=1;jettySize=auto;html=1;exitX=0.25;exitY=0;exitDx=0;exitDy=0;entryX=0.5;entryY=1;entryDx=0;entryDy=0;" edge="1" parent="1" source="Wryfh528fUQXv5REhCDo-1" target="Wryfh528fUQXv5REhCDo-3">
          <mxGeometry relative="1" as="geometry" />
        </mxCell>
        <mxCell id="Wryfh528fUQXv5REhCDo-8" style="edgeStyle=orthogonalEdgeStyle;rounded=0;orthogonalLoop=1;jettySize=auto;html=1;exitX=0;exitY=0.5;exitDx=0;exitDy=0;entryX=1;entryY=1;entryDx=0;entryDy=0;" edge="1" parent="1" source="Wryfh528fUQXv5REhCDo-1" target="Wryfh528fUQXv5REhCDo-4">
          <mxGeometry relative="1" as="geometry" />
        </mxCell>
        <mxCell id="Wryfh528fUQXv5REhCDo-9" style="edgeStyle=orthogonalEdgeStyle;rounded=0;orthogonalLoop=1;jettySize=auto;html=1;exitX=1;exitY=0.5;exitDx=0;exitDy=0;" edge="1" parent="1" source="Wryfh528fUQXv5REhCDo-1" target="Wryfh528fUQXv5REhCDo-6">
          <mxGeometry relative="1" as="geometry" />
        </mxCell>
        <mxCell id="Wryfh528fUQXv5REhCDo-10" style="edgeStyle=orthogonalEdgeStyle;rounded=0;orthogonalLoop=1;jettySize=auto;html=1;exitX=0.5;exitY=1;exitDx=0;exitDy=0;" edge="1" parent="1" source="Wryfh528fUQXv5REhCDo-1" target="Wryfh528fUQXv5REhCDo-5">
          <mxGeometry relative="1" as="geometry" />
        </mxCell>
        <mxCell id="Wryfh528fUQXv5REhCDo-36" style="edgeStyle=orthogonalEdgeStyle;rounded=0;orthogonalLoop=1;jettySize=auto;html=1;exitX=0.75;exitY=1;exitDx=0;exitDy=0;entryX=0.5;entryY=0;entryDx=0;entryDy=0;" edge="1" parent="1" source="Wryfh528fUQXv5REhCDo-1" target="Wryfh528fUQXv5REhCDo-34">
          <mxGeometry relative="1" as="geometry" />
        </mxCell>
        <mxCell id="Wryfh528fUQXv5REhCDo-1" value="Cliente" style="rounded=0;whiteSpace=wrap;html=1;fillColor=#ffcd28;strokeColor=#d79b00;gradientColor=#ffa500;" vertex="1" parent="1">
          <mxGeometry x="140" y="120" width="120" height="60" as="geometry" />
        </mxCell>
        <mxCell id="Wryfh528fUQXv5REhCDo-3" value="Nombre" style="ellipse;whiteSpace=wrap;html=1;" vertex="1" parent="1">
          <mxGeometry x="170" width="120" height="80" as="geometry" />
        </mxCell>
        <mxCell id="Wryfh528fUQXv5REhCDo-4" value="Id Cliente" style="ellipse;whiteSpace=wrap;html=1;fillColor=#f5f5f5;gradientColor=#b3b3b3;strokeColor=#666666;" vertex="1" parent="1">
          <mxGeometry x="-30" y="60" width="120" height="80" as="geometry" />
        </mxCell>
        <mxCell id="Wryfh528fUQXv5REhCDo-5" value="Telefono" style="ellipse;whiteSpace=wrap;html=1;" vertex="1" parent="1">
          <mxGeometry x="70" y="210" width="120" height="80" as="geometry" />
        </mxCell>
        <mxCell id="Wryfh528fUQXv5REhCDo-6" value="Correo" style="ellipse;whiteSpace=wrap;html=1;" vertex="1" parent="1">
          <mxGeometry x="310" y="90" width="120" height="80" as="geometry" />
        </mxCell>
        <mxCell id="Wryfh528fUQXv5REhCDo-17" style="edgeStyle=orthogonalEdgeStyle;rounded=0;orthogonalLoop=1;jettySize=auto;html=1;exitX=0.25;exitY=0;exitDx=0;exitDy=0;entryX=0.5;entryY=1;entryDx=0;entryDy=0;" edge="1" parent="1" source="Wryfh528fUQXv5REhCDo-11" target="Wryfh528fUQXv5REhCDo-15">
          <mxGeometry relative="1" as="geometry" />
        </mxCell>
        <mxCell id="Wryfh528fUQXv5REhCDo-18" style="edgeStyle=orthogonalEdgeStyle;rounded=0;orthogonalLoop=1;jettySize=auto;html=1;exitX=0;exitY=0.5;exitDx=0;exitDy=0;" edge="1" parent="1" source="Wryfh528fUQXv5REhCDo-11" target="Wryfh528fUQXv5REhCDo-12">
          <mxGeometry relative="1" as="geometry" />
        </mxCell>
        <mxCell id="Wryfh528fUQXv5REhCDo-11" value="Paquete" style="rounded=0;whiteSpace=wrap;html=1;fillColor=#ffcd28;strokeColor=#d79b00;gradientColor=#ffa500;" vertex="1" parent="1">
          <mxGeometry x="650" y="170" width="120" height="60" as="geometry" />
        </mxCell>
        <mxCell id="Wryfh528fUQXv5REhCDo-12" value="Nombre del paquete" style="ellipse;whiteSpace=wrap;html=1;" vertex="1" parent="1">
          <mxGeometry x="490" y="120" width="120" height="80" as="geometry" />
        </mxCell>
        <mxCell id="Wryfh528fUQXv5REhCDo-13" value="Fecha de salida" style="ellipse;whiteSpace=wrap;html=1;" vertex="1" parent="1">
          <mxGeometry x="820" y="220" width="120" height="80" as="geometry" />
        </mxCell>
        <mxCell id="Wryfh528fUQXv5REhCDo-14" value="Precio" style="ellipse;whiteSpace=wrap;html=1;" vertex="1" parent="1">
          <mxGeometry x="830" y="110" width="120" height="80" as="geometry" />
        </mxCell>
        <mxCell id="Wryfh528fUQXv5REhCDo-15" value="Id Paquete" style="ellipse;whiteSpace=wrap;html=1;fillColor=#f5f5f5;gradientColor=#b3b3b3;strokeColor=#666666;" vertex="1" parent="1">
          <mxGeometry x="670" y="20" width="120" height="80" as="geometry" />
        </mxCell>
        <mxCell id="Wryfh528fUQXv5REhCDo-16" value="Duracion de dias" style="ellipse;whiteSpace=wrap;html=1;" vertex="1" parent="1">
          <mxGeometry x="550" y="250" width="120" height="80" as="geometry" />
        </mxCell>
        <mxCell id="Wryfh528fUQXv5REhCDo-19" style="edgeStyle=orthogonalEdgeStyle;rounded=0;orthogonalLoop=1;jettySize=auto;html=1;exitX=0.5;exitY=1;exitDx=0;exitDy=0;entryX=0.742;entryY=-0.008;entryDx=0;entryDy=0;entryPerimeter=0;" edge="1" parent="1" source="Wryfh528fUQXv5REhCDo-11" target="Wryfh528fUQXv5REhCDo-16">
          <mxGeometry relative="1" as="geometry" />
        </mxCell>
        <mxCell id="Wryfh528fUQXv5REhCDo-20" style="edgeStyle=orthogonalEdgeStyle;rounded=0;orthogonalLoop=1;jettySize=auto;html=1;exitX=1;exitY=0.25;exitDx=0;exitDy=0;entryX=-0.005;entryY=0.603;entryDx=0;entryDy=0;entryPerimeter=0;" edge="1" parent="1" source="Wryfh528fUQXv5REhCDo-11" target="Wryfh528fUQXv5REhCDo-14">
          <mxGeometry relative="1" as="geometry" />
        </mxCell>
        <mxCell id="Wryfh528fUQXv5REhCDo-21" style="edgeStyle=orthogonalEdgeStyle;rounded=0;orthogonalLoop=1;jettySize=auto;html=1;exitX=1;exitY=0.75;exitDx=0;exitDy=0;entryX=-0.028;entryY=0.308;entryDx=0;entryDy=0;entryPerimeter=0;" edge="1" parent="1" source="Wryfh528fUQXv5REhCDo-11" target="Wryfh528fUQXv5REhCDo-13">
          <mxGeometry relative="1" as="geometry" />
        </mxCell>
        <mxCell id="Wryfh528fUQXv5REhCDo-30" style="edgeStyle=orthogonalEdgeStyle;rounded=0;orthogonalLoop=1;jettySize=auto;html=1;exitX=0;exitY=0.5;exitDx=0;exitDy=0;entryX=1;entryY=0.5;entryDx=0;entryDy=0;" edge="1" parent="1" source="Wryfh528fUQXv5REhCDo-22" target="Wryfh528fUQXv5REhCDo-26">
          <mxGeometry relative="1" as="geometry" />
        </mxCell>
        <mxCell id="Wryfh528fUQXv5REhCDo-32" style="edgeStyle=orthogonalEdgeStyle;rounded=0;orthogonalLoop=1;jettySize=auto;html=1;exitX=1;exitY=0.75;exitDx=0;exitDy=0;entryX=0;entryY=0;entryDx=0;entryDy=0;" edge="1" parent="1" source="Wryfh528fUQXv5REhCDo-22" target="Wryfh528fUQXv5REhCDo-25">
          <mxGeometry relative="1" as="geometry">
            <Array as="points">
              <mxPoint x="360" y="560" />
              <mxPoint x="478" y="560" />
            </Array>
          </mxGeometry>
        </mxCell>
        <mxCell id="Wryfh528fUQXv5REhCDo-40" style="edgeStyle=orthogonalEdgeStyle;rounded=0;orthogonalLoop=1;jettySize=auto;html=1;exitX=1;exitY=0.5;exitDx=0;exitDy=0;entryX=0.75;entryY=1;entryDx=0;entryDy=0;" edge="1" parent="1" source="Wryfh528fUQXv5REhCDo-41" target="Wryfh528fUQXv5REhCDo-11">
          <mxGeometry relative="1" as="geometry">
            <mxPoint x="780" y="489.57142857142844" as="targetPoint" />
          </mxGeometry>
        </mxCell>
        <mxCell id="Wryfh528fUQXv5REhCDo-22" value="Reserva" style="rounded=0;whiteSpace=wrap;html=1;fillColor=#ffcd28;strokeColor=#d79b00;gradientColor=#ffa500;" vertex="1" parent="1">
          <mxGeometry x="240" y="480" width="120" height="60" as="geometry" />
        </mxCell>
        <mxCell id="Wryfh528fUQXv5REhCDo-23" value="Id Paquete" style="ellipse;whiteSpace=wrap;html=1;fillColor=#f5f5f5;gradientColor=#b3b3b3;strokeColor=#666666;" vertex="1" parent="1">
          <mxGeometry x="500" y="370" width="120" height="80" as="geometry" />
        </mxCell>
        <mxCell id="Wryfh528fUQXv5REhCDo-24" value="Fecha de la reserva" style="ellipse;whiteSpace=wrap;html=1;" vertex="1" parent="1">
          <mxGeometry x="250" y="600" width="120" height="80" as="geometry" />
        </mxCell>
        <mxCell id="Wryfh528fUQXv5REhCDo-25" value="Numero de personas" style="ellipse;whiteSpace=wrap;html=1;" vertex="1" parent="1">
          <mxGeometry x="460" y="580" width="120" height="80" as="geometry" />
        </mxCell>
        <mxCell id="Wryfh528fUQXv5REhCDo-26" value="Id Cliente" style="ellipse;whiteSpace=wrap;html=1;fillColor=#f5f5f5;gradientColor=#b3b3b3;strokeColor=#666666;" vertex="1" parent="1">
          <mxGeometry x="50" y="505" width="120" height="80" as="geometry" />
        </mxCell>
        <mxCell id="Wryfh528fUQXv5REhCDo-27" value="Id Reserva" style="ellipse;whiteSpace=wrap;html=1;fillColor=#f5f5f5;gradientColor=#b3b3b3;strokeColor=#666666;" vertex="1" parent="1">
          <mxGeometry x="330" y="350" width="120" height="80" as="geometry" />
        </mxCell>
        <mxCell id="Wryfh528fUQXv5REhCDo-28" style="edgeStyle=orthogonalEdgeStyle;rounded=0;orthogonalLoop=1;jettySize=auto;html=1;exitX=0.75;exitY=0;exitDx=0;exitDy=0;entryX=0.662;entryY=0.972;entryDx=0;entryDy=0;entryPerimeter=0;" edge="1" parent="1" source="Wryfh528fUQXv5REhCDo-22" target="Wryfh528fUQXv5REhCDo-27">
          <mxGeometry relative="1" as="geometry" />
        </mxCell>
        <mxCell id="Wryfh528fUQXv5REhCDo-29" style="edgeStyle=orthogonalEdgeStyle;rounded=0;orthogonalLoop=1;jettySize=auto;html=1;exitX=1;exitY=0.25;exitDx=0;exitDy=0;entryX=0;entryY=1;entryDx=0;entryDy=0;" edge="1" parent="1" source="Wryfh528fUQXv5REhCDo-22" target="Wryfh528fUQXv5REhCDo-23">
          <mxGeometry relative="1" as="geometry">
            <Array as="points">
              <mxPoint x="360" y="480" />
              <mxPoint x="508" y="480" />
              <mxPoint x="508" y="438" />
            </Array>
          </mxGeometry>
        </mxCell>
        <mxCell id="Wryfh528fUQXv5REhCDo-31" style="edgeStyle=orthogonalEdgeStyle;rounded=0;orthogonalLoop=1;jettySize=auto;html=1;exitX=0.75;exitY=1;exitDx=0;exitDy=0;entryX=0.595;entryY=-0.057;entryDx=0;entryDy=0;entryPerimeter=0;" edge="1" parent="1" source="Wryfh528fUQXv5REhCDo-22" target="Wryfh528fUQXv5REhCDo-24">
          <mxGeometry relative="1" as="geometry" />
        </mxCell>
        <mxCell id="Wryfh528fUQXv5REhCDo-37" style="edgeStyle=orthogonalEdgeStyle;rounded=0;orthogonalLoop=1;jettySize=auto;html=1;exitX=0.5;exitY=1;exitDx=0;exitDy=0;entryX=0;entryY=0;entryDx=0;entryDy=0;" edge="1" parent="1" source="Wryfh528fUQXv5REhCDo-34" target="Wryfh528fUQXv5REhCDo-22">
          <mxGeometry relative="1" as="geometry" />
        </mxCell>
        <mxCell id="Wryfh528fUQXv5REhCDo-34" value="Realiza" style="rhombus;whiteSpace=wrap;html=1;fillColor=#d5e8d4;gradientColor=#97d077;strokeColor=#82b366;" vertex="1" parent="1">
          <mxGeometry x="180" y="340" width="80" height="80" as="geometry" />
        </mxCell>
        <mxCell id="Wryfh528fUQXv5REhCDo-42" value="" style="edgeStyle=orthogonalEdgeStyle;rounded=0;orthogonalLoop=1;jettySize=auto;html=1;exitX=1;exitY=0.5;exitDx=0;exitDy=0;entryX=0.75;entryY=1;entryDx=0;entryDy=0;" edge="1" parent="1" source="Wryfh528fUQXv5REhCDo-22" target="Wryfh528fUQXv5REhCDo-41">
          <mxGeometry relative="1" as="geometry">
            <mxPoint x="740" y="230" as="targetPoint" />
            <mxPoint x="430" y="490" as="sourcePoint" />
          </mxGeometry>
        </mxCell>
        <mxCell id="Wryfh528fUQXv5REhCDo-41" value="Incuye" style="rhombus;whiteSpace=wrap;html=1;fillColor=#d5e8d4;gradientColor=#97d077;strokeColor=#82b366;" vertex="1" parent="1">
          <mxGeometry x="700" y="430" width="80" height="80" as="geometry" />
        </mxCell>
      </root>
    </mxGraphModel>
  </diagram>
</mxfile>
